<?xml version="1.0" encoding="UTF-8" standalone="no"?>
<!-- Created with Inkscape (http://www.inkscape.org/) -->

<svg
   width="87.431519mm"
   height="67.275154mm"
   viewBox="0 0 87.431519 67.275154"
   version="1.1"
   id="svg1"
   xmlns="http://www.w3.org/2000/svg"
   xmlns:svg="http://www.w3.org/2000/svg">
  <defs
     id="defs1">
    <filter
       style="color-interpolation-filters:sRGB"
       id="filter14"
       x="-0.087267592"
       y="-0.20712805"
       width="1.1695955"
       height="1.5005595">
      <feFlood
         result="flood"
         in="SourceGraphic"
         flood-opacity="0.400000"
         flood-color="rgb(208,215,220)"
         id="feFlood13" />
      <feGaussianBlur
         result="blur"
         in="SourceGraphic"
         stdDeviation="1.000000"
         id="feGaussianBlur13" />
      <feOffset
         result="offset"
         in="blur"
         dx="0.200000"
         dy="1.000000"
         id="feOffset13" />
      <feComposite
         result="comp1"
         operator="in"
         in="flood"
         in2="offset"
         id="feComposite13" />
      <feComposite
         result="fbSourceGraphic"
         operator="over"
         in="SourceGraphic"
         in2="comp1"
         id="feComposite14" />
      <feColorMatrix
         result="fbSourceGraphicAlpha"
         in="fbSourceGraphic"
         values="0 0 0 -1 0 0 0 0 -1 0 0 0 0 -1 0 0 0 0 1 0"
         id="feColorMatrix26" />
      <feFlood
         id="feFlood26"
         result="flood"
         in="fbSourceGraphic"
         flood-opacity="0.400000"
         flood-color="rgb(208,215,220)" />
      <feGaussianBlur
         id="feGaussianBlur26"
         result="blur"
         in="fbSourceGraphic"
         stdDeviation="1.000000" />
      <feOffset
         id="feOffset26"
         result="offset"
         in="blur"
         dx="-0.500000"
         dy="1.000000" />
      <feComposite
         id="feComposite26"
         result="comp1"
         operator="in"
         in="flood"
         in2="offset" />
      <feComposite
         id="feComposite27"
         result="comp2"
         operator="over"
         in="fbSourceGraphic"
         in2="comp1" />
    </filter>
  </defs>
  <g
     id="layer1"
     transform="translate(-54.861755,-123.52921)">
    <g
       id="g4"
       style="filter:url(#filter14)"
       transform="matrix(1.2308622,0,0,1.5468697,-20.901539,-81.905196)">
      <path
         d="m 98.083583,137.60654 c -3.08514,0.009 -5.988723,1.45961 -7.849303,3.92059 -1.21352,-0.68851 -2.58455,-1.05127 -3.97978,-1.05301 -4.46548,-8e-5 -8.08548,3.61992 -8.0854,8.08539 l 6.4e-4,0.008 c -1.24423,-1.26473 -2.90123,-1.97175 -4.62546,-1.97363 -3.69548,0 -6.69126,3.1741 -6.69125,7.08955 0.025,3.68353 2.70826,6.73314 6.17458,7.01748 0.0218,0.0444 0.0588,0.0797 0.11183,0.0797 h 30.76105 11.81305 5.58923 c 0.0534,0 0.0906,-0.0357 0.11228,-0.0806 0.0297,0.004 0.0593,0.008 0.089,0.012 3.35887,-6e-5 6.08175,-2.7997 6.08172,-6.2532 -9e-5,-3.45341 -2.72293,-6.25293 -6.08172,-6.25298 -0.2278,0.0175 -0.45446,0.0482 -0.67889,0.092 -1.18025,-5.27945 -5.74936,-9.02195 -11.01806,-9.02477 -1.67007,0.0146 -3.31628,0.40921 -4.82042,1.15558 -1.844,-1.80653 -4.32194,-2.81937 -6.903377,-2.82172 z"
         style="fill:#c8d1d2;fill-opacity:1;stroke-width:0.45172;stroke-linecap:round;paint-order:stroke fill markers"
         id="path4" />
    </g>
    <path
       style="fill:none;fill-opacity:1;stroke:#acfcff;stroke-width:1.165;stroke-linecap:round;stroke-opacity:1;paint-order:stroke fill markers"
       d="m 77.839481,171.03482 c 0,4.12291 0,8.24582 0,12.36873"
       id="path7" />
    <path
       style="fill:none;fill-opacity:1;stroke:#acfcff;stroke-width:1.39699;stroke-linecap:round;stroke-opacity:1;paint-order:stroke fill markers"
       d="m 99.227075,172.32064 c 0,5.92841 0,11.85682 0,17.78523"
       id="path8" />
    <path
       style="fill:none;fill-opacity:1;stroke:#acfcff;stroke-width:1.165;stroke-linecap:round;stroke-opacity:1;paint-order:stroke fill markers"
       d="m 121.13003,171.02101 c 0,4.12291 0,8.24582 0,12.36873"
       id="path9" />
  </g>
</svg>
