<svg width="482" height="303" viewBox="0 0 482 303" fill="none" xmlns="http://www.w3.org/2000/svg">
<g filter="url(#filter0_d_17_194)">
<path fill-rule="evenodd" clip-rule="evenodd" d="M81.6105 285.007C81.6105 285.007 81.6106 285.007 81.6105 285.007Z" fill="#D9D9D9"/>
<path fill-rule="evenodd" clip-rule="evenodd" d="M81.5788 285.007L81.6105 285.007C82.5385 285.003 83.35 285 84 285H400C402.022 285 404.023 284.912 406 284.739C440.745 281.701 468 252.534 468 217C468 191.986 454.494 170.126 434.376 158.316C439.247 148.943 442 138.293 442 127C442 89.4446 411.555 59 374 59C361.902 59 350.542 62.1594 340.7 67.698C334.515 36.5112 307.003 13 274 13C241.441 13 214.227 35.8821 207.562 66.442C195.158 53.2432 177.542 45 158 45C133.583 45 112.172 57.869 100.179 77.1943C98.4698 77.0655 96.7426 77 95 77C57.4446 77 27 107.445 27 145C27 154.725 29.0417 163.974 32.7198 172.34C22.3066 184.287 16 199.907 16 217C16 249.044 26.6651 276.805 56.5 284C60.835 285.045 73.5405 285.038 80.7019 285.011L81.5788 285.007Z" fill="#D9D9D9"/>
</g>
<defs>
<filter id="filter0_d_17_194" x="0" y="0" width="482" height="302.018" filterUnits="userSpaceOnUse" color-interpolation-filters="sRGB">
<feFlood flood-opacity="0" result="BackgroundImageFix"/>
<feColorMatrix in="SourceAlpha" type="matrix" values="0 0 0 0 0 0 0 0 0 0 0 0 0 0 0 0 0 0 127 0" result="hardAlpha"/>
<feOffset dx="-1" dy="2"/>
<feGaussianBlur stdDeviation="7.5"/>
<feComposite in2="hardAlpha" operator="out"/>
<feColorMatrix type="matrix" values="0 0 0 0 0 0 0 0 0 0 0 0 0 0 0 0 0 0 0.25 0"/>
<feBlend mode="normal" in2="BackgroundImageFix" result="effect1_dropShadow_17_194"/>
<feBlend mode="normal" in="SourceGraphic" in2="effect1_dropShadow_17_194" result="shape"/>
</filter>
</defs>
</svg>
