<?xml version="1.0" encoding="UTF-8" standalone="no"?>
<!-- Created with Inkscape (http://www.inkscape.org/) -->

<svg
   width="210mm"
   height="297mm"
   viewBox="0 0 210 297"
   version="1.1"
   id="svg1"
   xml:space="preserve"
   xmlns="http://www.w3.org/2000/svg"
   xmlns:svg="http://www.w3.org/2000/svg"><defs
     id="defs1" /><g
     id="g13"><path
       style="opacity:1;fill:#ffff09;fill-opacity:1;stroke:#fefffe;stroke-width:1.165;stroke-linecap:round;stroke-opacity:1;paint-order:stroke fill markers"
       d="m 110.51153,77.50408 -5.04604,7.8613 1.8066,5.663488 -2.17408,4.625132 2.03871,4.308389 -0.38715,6.268091 3.80743,4.72766 -1.37244,8.83275 1.07128,3.69142 -5.07602,10.13776 -1.55569,1.36674 -0.73215,3.40275 -5.677095,7.42593 5.885925,15.71278 -4.235076,0.94556 -0.156687,12.05354 -1.761312,3.14446 c 0.681556,2.32238 1.363112,4.64475 2.044668,6.96713 1.100877,3.75121 2.201757,7.50241 3.302637,11.25362 l 1.41322,0.55311 -1.82482,17.84788 5.12325,-19.4413 -3.40837,-2.18153 -3.28447,-13.08935 1.61622,-14.06052 5.67163,-5.70785 -6.12604,-15.10811 4.20164,-3.94768 0.004,-2.82533 2.73321,-3.40887 2.24408,-4.28011 2.48115,-3.62478 -0.22378,-6.14726 1.60244,-3.45254 -0.3181,-3.12518 -0.87865,-4.21127 -3.17111,-5.16328 0.28541,-6.427751 -0.60121,-1.03065 1.49502,-5.955916 -1.73911,-6.293964 4.11322,-6.813349 z"
       id="path3" /><path
       style="opacity:1;fill:none;fill-opacity:1;stroke:#ffff01;stroke-width:1.165;stroke-linecap:round;stroke-opacity:1;paint-order:stroke fill markers"
       d="m 113.76097,111.78752 3.57014,1.63896 2.05502,3.3485 3.95756,1.01475 0.0624,0.86254 4.72645,0.50388 0.53535,1.97172 4.15255,-0.39205 1.13921,2.66056 3.03706,-0.13909 2.26954,3.33124"
       id="path4" /><path
       style="opacity:1;fill:none;fill-opacity:1;stroke:#ffff01;stroke-width:1.165;stroke-linecap:round;stroke-opacity:1;paint-order:stroke fill markers"
       d="m 113.13974,126.61814 v 0 l 2.99843,0.56225 -1.12687,3.39229 1.58424,0.62878 -1.34963,2.34987 2.92204,3.07333 0.66072,3.59185 4.69548,2.01334 4.07344,-0.56238 1.83765,1.1868 3.19394,0.98917 2.5359,3.18685"
       id="path5" /><path
       style="opacity:1;fill:none;fill-opacity:1;stroke:#ffff01;stroke-width:1.165;stroke-linecap:round;stroke-opacity:1;paint-order:stroke fill markers"
       d="m 123.52415,142.22985 -0.35293,2.35586 1.55643,1.85539 -3.109,3.63334 0.41416,5.39176 -3.24824,2.34193"
       id="path6" /><path
       style="opacity:1;fill:none;fill-opacity:1;stroke:#ffff01;stroke-width:1.165;stroke-linecap:round;stroke-opacity:1;paint-order:stroke fill markers"
       d="m 122.03281,155.4662 5.63696,2.96459 3.4727,2.31371 -0.49891,3.24323 8.58131,1.81209 5.05079,10.32643 6.95747,0.43387"
       id="path7" /><path
       style="opacity:1;fill:none;fill-opacity:1;stroke:#ffff01;stroke-width:1.165;stroke-linecap:round;stroke-opacity:1;paint-order:stroke fill markers"
       d="m 110.20175,114.9942 -6.32331,1.63095 c 0.11152,1.19582 -0.32788,2.43196 -1.16915,3.2891 -0.84126,0.85714 -2.06897,1.31957 -3.266667,1.23043 -0.329791,-0.0245 -0.656614,-0.0887 -0.97119,-0.19075 l -0.556098,6.75486 -4.25468,0.19271 -1.62192,1.8541 -6.64696,0.92153"
       id="path8" /><path
       style="opacity:1;fill:none;fill-opacity:1;stroke:#ffff01;stroke-width:1.165;stroke-linecap:round;stroke-opacity:1;paint-order:stroke fill markers"
       d="m 97.915335,127.70879 2.711585,5.32089 -1.917957,6.10167 -5.579298,1.91444 -1.251871,1.71102"
       id="path9" /><path
       style="opacity:1;fill:none;fill-opacity:1;stroke:#ffff01;stroke-width:1.165;stroke-linecap:round;stroke-opacity:1;paint-order:stroke fill markers"
       d="m 128.07766,159.33121 0.22548,14.59651 -5.68058,2.61677 -6.33107,0.32696"
       id="path10" /><path
       style="opacity:1;fill:none;fill-opacity:1;stroke:#ffff01;stroke-width:1.165;stroke-linecap:round;stroke-opacity:1;paint-order:stroke fill markers"
       d="m 124.56136,175.45728 0.31349,5.78662 -2.4478,6.68819 -4.14595,6.5736"
       id="path11" /><path
       style="opacity:1;fill:none;fill-opacity:1;stroke:#ffff01;stroke-width:1.165;stroke-linecap:round;stroke-opacity:1;paint-order:stroke fill markers"
       d="m 128.4721,170.25477 4.159,2.90536 -0.88905,5.53023 3.03386,5.61698 0.045,6.22594 -0.93203,1.7399 0.89055,5.40344 -2.80993,4.17945 1.11198,4.03907"
       id="path12" /><path
       style="opacity:1;fill:none;fill-opacity:1;stroke:#ffff01;stroke-width:1.165;stroke-linecap:round;stroke-opacity:1;paint-order:stroke fill markers"
       d="m 99.988311,150.35898 c -0.620329,1.03547 -1.779557,1.7269 -2.985426,1.78068 -1.10013,0.0491 -2.212136,-0.42822 -2.934431,-1.25947 l -7.04397,4.76029 -0.161049,2.65377 -6.059342,-0.72917 -1.813213,1.76713 -1.907837,-0.53955 -4.220009,1.3731 -4.636111,-2.30857 -6.276088,2.24803"
       id="path13" /></g></svg>
