<?xml version="1.0" encoding="UTF-8" standalone="no"?>
<!-- Created with Inkscape (http://www.inkscape.org/) -->

<svg
   width="100.95612mm"
   height="121.98528mm"
   viewBox="0 0 100.95612 121.98528"
   version="1.1"
   id="svg1"
   xmlns="http://www.w3.org/2000/svg"
   xmlns:svg="http://www.w3.org/2000/svg">
  <defs
     id="defs1">
    <filter
       style="color-interpolation-filters:sRGB"
       id="filter283"
       x="-0.016492966"
       y="-0.014974274"
       width="1.0329859"
       height="1.0299485">
      <feGaussianBlur
         stdDeviation="0.61 0.61"
         result="blur"
         id="feGaussianBlur283" />
    </filter>
    <filter
       style="color-interpolation-filters:sRGB"
       id="filter284"
       x="-0.027980103"
       y="-0.015280957"
       width="1.0559602"
       height="1.0305619">
      <feGaussianBlur
         stdDeviation="0.61 0.61"
         result="blur"
         id="feGaussianBlur284" />
    </filter>
    <filter
       style="color-interpolation-filters:sRGB"
       id="filter14-0"
       x="-0.087267592"
       y="-0.20712805"
       width="1.1695955"
       height="1.5005595">
      <feFlood
         result="flood"
         in="SourceGraphic"
         flood-opacity="0.400000"
         flood-color="rgb(208,215,220)"
         id="feFlood13-28" />
      <feGaussianBlur
         result="blur"
         in="SourceGraphic"
         stdDeviation="1.000000"
         id="feGaussianBlur13-60" />
      <feOffset
         result="offset"
         in="blur"
         dx="0.200000"
         dy="1.000000"
         id="feOffset13-2" />
      <feComposite
         result="comp1"
         operator="in"
         in="flood"
         in2="offset"
         id="feComposite13-48" />
      <feComposite
         result="fbSourceGraphic"
         operator="over"
         in="SourceGraphic"
         in2="comp1"
         id="feComposite14-6" />
      <feColorMatrix
         result="fbSourceGraphicAlpha"
         in="fbSourceGraphic"
         values="0 0 0 -1 0 0 0 0 -1 0 0 0 0 -1 0 0 0 0 1 0"
         id="feColorMatrix26-5" />
      <feFlood
         id="feFlood26-0"
         result="flood"
         in="fbSourceGraphic"
         flood-opacity="0.400000"
         flood-color="rgb(208,215,220)" />
      <feGaussianBlur
         id="feGaussianBlur26-9"
         result="blur"
         in="fbSourceGraphic"
         stdDeviation="1.000000" />
      <feOffset
         id="feOffset26-0"
         result="offset"
         in="blur"
         dx="-0.500000"
         dy="1.000000" />
      <feComposite
         id="feComposite26-0"
         result="comp1"
         operator="in"
         in="flood"
         in2="offset" />
      <feComposite
         id="feComposite27-6"
         result="comp2"
         operator="over"
         in="fbSourceGraphic"
         in2="comp1" />
    </filter>
  </defs>
  <g
     id="layer1"
     transform="translate(-49.230059,-115.48443)">
    <g
       id="g5">
      <path
         d="m 114.25969,119.17104 a 52.302872,52.002354 0 0 1 25.19949,44.46137 52.302872,52.002354 0 0 1 -43.059897,51.0837 49.014111,49.014111 0 0 0 3.30884,0.26045 49.014111,49.014111 0 0 0 49.014057,-49.01406 49.014111,49.014111 0 0 0 -34.46249,-46.79146 z"
         style="fill:#ffff00;fill-opacity:1;stroke-width:1.165;stroke-linecap:round;paint-order:stroke fill markers;filter:url(#filter284)"
         id="path4" />
      <path
         d="m 114.25969,119.17104 a 49.014111,49.014111 0 0 0 -14.551567,-2.22261 49.014111,49.014111 0 0 0 -49.01406,49.01407 49.014111,49.014111 0 0 0 45.70522,48.75361 52.302872,52.002354 0 0 0 43.059897,-51.0837 52.302872,52.002354 0 0 0 -25.19949,-44.46137 z"
         style="fill:#3d4a52;fill-opacity:1;stroke-width:1.165;stroke-linecap:round;paint-order:stroke fill markers;filter:url(#filter283)"
         id="path5" />
    </g>
  </g>
  <g
     id="layer1-3"
     transform="matrix(0.58760599,0,0,0.58760599,-28.568229,1.9857838)">
    <g
       id="g4"
       style="filter:url(#filter14-0)"
       transform="matrix(1.2308622,0,0,1.5468697,-20.901539,-81.905196)">
      <path
         d="m 98.083583,137.60654 c -3.08514,0.009 -5.988723,1.45961 -7.849303,3.92059 -1.21352,-0.68851 -2.58455,-1.05127 -3.97978,-1.05301 -4.46548,-8e-5 -8.08548,3.61992 -8.0854,8.08539 l 6.4e-4,0.008 c -1.24423,-1.26473 -2.90123,-1.97175 -4.62546,-1.97363 -3.69548,0 -6.69126,3.1741 -6.69125,7.08955 0.025,3.68353 2.70826,6.73314 6.17458,7.01748 0.0218,0.0444 0.0588,0.0797 0.11183,0.0797 h 30.76105 11.81305 5.58923 c 0.0534,0 0.0906,-0.0357 0.11228,-0.0806 0.0297,0.004 0.0593,0.008 0.089,0.012 3.35887,-6e-5 6.08175,-2.7997 6.08172,-6.2532 -9e-5,-3.45341 -2.72293,-6.25293 -6.08172,-6.25298 -0.2278,0.0175 -0.45446,0.0482 -0.67889,0.092 -1.18025,-5.27945 -5.74936,-9.02195 -11.01806,-9.02477 -1.67007,0.0146 -3.31628,0.40921 -4.82042,1.15558 -1.844,-1.80653 -4.32194,-2.81937 -6.903377,-2.82172 z"
         style="fill:#c8d1d2;fill-opacity:1;stroke-width:0.45172;stroke-linecap:round;paint-order:stroke fill markers"
         id="path4-8" />
    </g>
    <path
       style="fill:none;fill-opacity:1;stroke:#acfcff;stroke-width:1.165;stroke-linecap:round;stroke-opacity:1;paint-order:stroke fill markers"
       d="m 77.839481,171.03482 c 0,4.12291 0,8.24582 0,12.36873"
       id="path7" />
    <path
       style="fill:none;fill-opacity:1;stroke:#acfcff;stroke-width:1.39699;stroke-linecap:round;stroke-opacity:1;paint-order:stroke fill markers"
       d="m 99.227075,172.32064 c 0,5.92841 0,11.85682 0,17.78523"
       id="path8" />
    <path
       style="fill:none;fill-opacity:1;stroke:#acfcff;stroke-width:1.165;stroke-linecap:round;stroke-opacity:1;paint-order:stroke fill markers"
       d="m 121.13003,171.02101 c 0,4.12291 0,8.24582 0,12.36873"
       id="path9" />
    <path
       style="fill:none;fill-opacity:1;stroke:#acfcff;stroke-width:1.39699;stroke-linecap:round;stroke-opacity:1;paint-order:stroke fill markers"
       d="m 88.146755,175.6705 c 0,5.92841 0,11.85682 0,17.78523"
       id="path10" />
    <path
       style="fill:none;fill-opacity:1;stroke:#acfcff;stroke-width:1.39699;stroke-linecap:round;stroke-opacity:1;paint-order:stroke fill markers"
       d="m 110.30739,178.76268 c 0,5.92841 0,11.85682 0,17.78523"
       id="path11" />
  </g>
  <g
     id="g17"
     transform="matrix(0.53993038,0,0,0.53993038,13.658943,15.485952)">
    <g
       id="g12"
       style="filter:url(#filter14-0)"
       transform="matrix(1.2308622,0,0,1.5468697,-20.901539,-81.905196)">
      <path
         d="m 98.083583,137.60654 c -3.08514,0.009 -5.988723,1.45961 -7.849303,3.92059 -1.21352,-0.68851 -2.58455,-1.05127 -3.97978,-1.05301 -4.46548,-8e-5 -8.08548,3.61992 -8.0854,8.08539 l 6.4e-4,0.008 c -1.24423,-1.26473 -2.90123,-1.97175 -4.62546,-1.97363 -3.69548,0 -6.69126,3.1741 -6.69125,7.08955 0.025,3.68353 2.70826,6.73314 6.17458,7.01748 0.0218,0.0444 0.0588,0.0797 0.11183,0.0797 h 30.76105 11.81305 5.58923 c 0.0534,0 0.0906,-0.0357 0.11228,-0.0806 0.0297,0.004 0.0593,0.008 0.089,0.012 3.35887,-6e-5 6.08175,-2.7997 6.08172,-6.2532 -9e-5,-3.45341 -2.72293,-6.25293 -6.08172,-6.25298 -0.2278,0.0175 -0.45446,0.0482 -0.67889,0.092 -1.18025,-5.27945 -5.74936,-9.02195 -11.01806,-9.02477 -1.67007,0.0146 -3.31628,0.40921 -4.82042,1.15558 -1.844,-1.80653 -4.32194,-2.81937 -6.903377,-2.82172 z"
         style="fill:#c8d1d2;fill-opacity:1;stroke-width:0.45172;stroke-linecap:round;paint-order:stroke fill markers"
         id="path12" />
    </g>
    <path
       style="fill:none;fill-opacity:1;stroke:#acfcff;stroke-width:1.165;stroke-linecap:round;stroke-opacity:1;paint-order:stroke fill markers"
       d="m 77.839481,171.03482 c 0,4.12291 0,8.24582 0,12.36873"
       id="path13" />
    <path
       style="fill:none;fill-opacity:1;stroke:#acfcff;stroke-width:1.39699;stroke-linecap:round;stroke-opacity:1;paint-order:stroke fill markers"
       d="m 99.227075,172.32064 c 0,5.92841 0,11.85682 0,17.78523"
       id="path14" />
    <path
       style="fill:none;fill-opacity:1;stroke:#acfcff;stroke-width:1.165;stroke-linecap:round;stroke-opacity:1;paint-order:stroke fill markers"
       d="m 121.13003,171.02101 c 0,4.12291 0,8.24582 0,12.36873"
       id="path15" />
    <path
       style="fill:none;fill-opacity:1;stroke:#acfcff;stroke-width:1.39699;stroke-linecap:round;stroke-opacity:1;paint-order:stroke fill markers"
       d="m 88.146755,175.6705 c 0,5.92841 0,11.85682 0,17.78523"
       id="path16" />
    <path
       style="fill:none;fill-opacity:1;stroke:#acfcff;stroke-width:1.39699;stroke-linecap:round;stroke-opacity:1;paint-order:stroke fill markers"
       d="m 110.30739,178.76268 c 0,5.92841 0,11.85682 0,17.78523"
       id="path17" />
  </g>
</svg>
