<?xml version="1.0" encoding="UTF-8" standalone="no"?>
<!-- Created with Inkscape (http://www.inkscape.org/) -->

<svg
   width="140.0652mm"
   height="201.31993mm"
   viewBox="0 0 140.0652 201.31993"
   version="1.1"
   id="svg1"
   xmlns="http://www.w3.org/2000/svg"
   xmlns:svg="http://www.w3.org/2000/svg">
  <defs
     id="defs1">
    <filter
       style="color-interpolation-filters:sRGB"
       id="filter274"
       x="-0.071549008"
       y="-0.072746749"
       width="1.143098"
       height="1.1454935">
      <feGaussianBlur
         stdDeviation="0.61 0.61"
         result="blur"
         id="feGaussianBlur274" />
    </filter>
    <filter
       style="color-interpolation-filters:sRGB"
       id="filter275"
       x="-0.17115921"
       y="-0.17600487"
       width="1.3423184"
       height="1.3520097">
      <feGaussianBlur
         stdDeviation="0.61 0.61"
         result="blur"
         id="feGaussianBlur275" />
    </filter>
    <filter
       style="color-interpolation-filters:sRGB"
       id="filter276"
       x="-0.17115921"
       y="-0.17600487"
       width="1.3423184"
       height="1.3520097">
      <feGaussianBlur
         stdDeviation="0.61 0.61"
         result="blur"
         id="feGaussianBlur276" />
    </filter>
    <filter
       style="color-interpolation-filters:sRGB"
       id="filter277"
       x="-0.071549008"
       y="-0.072746749"
       width="1.143098"
       height="1.1454935">
      <feGaussianBlur
         stdDeviation="0.61 0.61"
         result="blur"
         id="feGaussianBlur277" />
    </filter>
    <filter
       style="color-interpolation-filters:sRGB"
       id="filter278"
       x="-0.17115921"
       y="-0.17600487"
       width="1.3423184"
       height="1.3520097">
      <feGaussianBlur
         stdDeviation="0.61 0.61"
         result="blur"
         id="feGaussianBlur278" />
    </filter>
    <filter
       style="color-interpolation-filters:sRGB"
       id="filter279"
       x="-0.071549008"
       y="-0.072746749"
       width="1.143098"
       height="1.1454935">
      <feGaussianBlur
         stdDeviation="0.61 0.61"
         result="blur"
         id="feGaussianBlur279" />
    </filter>
    <filter
       style="color-interpolation-filters:sRGB"
       id="filter280"
       x="-0.17115921"
       y="-0.17600487"
       width="1.3423184"
       height="1.3520097">
      <feGaussianBlur
         stdDeviation="0.61 0.61"
         result="blur"
         id="feGaussianBlur280" />
    </filter>
    <filter
       style="color-interpolation-filters:sRGB"
       id="filter281"
       x="-0.17115921"
       y="-0.17600487"
       width="1.3423184"
       height="1.3520097">
      <feGaussianBlur
         stdDeviation="0.61 0.61"
         result="blur"
         id="feGaussianBlur281" />
    </filter>
    <filter
       style="color-interpolation-filters:sRGB"
       id="filter282"
       x="-0.17115921"
       y="-0.17600487"
       width="1.3423184"
       height="1.3520097">
      <feGaussianBlur
         stdDeviation="0.61 0.61"
         result="blur"
         id="feGaussianBlur282" />
    </filter>
    <filter
       style="color-interpolation-filters:sRGB"
       id="filter283"
       x="-0.016492966"
       y="-0.014974274"
       width="1.0329859"
       height="1.0299485">
      <feGaussianBlur
         stdDeviation="0.61 0.61"
         result="blur"
         id="feGaussianBlur283" />
    </filter>
    <filter
       style="color-interpolation-filters:sRGB"
       id="filter284"
       x="-0.027980103"
       y="-0.015280957"
       width="1.0559602"
       height="1.0305619">
      <feGaussianBlur
         stdDeviation="0.61 0.61"
         result="blur"
         id="feGaussianBlur284" />
    </filter>
    <filter
       style="color-interpolation-filters:sRGB"
       id="filter14"
       x="-0.15168095"
       y="-0.38732946"
       width="1.2984222"
       height="1.8609623">
      <feFlood
         result="flood"
         in="SourceGraphic"
         flood-opacity="0.400000"
         flood-color="rgb(208,215,220)"
         id="feFlood13" />
      <feGaussianBlur
         result="blur"
         in="SourceGraphic"
         stdDeviation="1.000000"
         id="feGaussianBlur13" />
      <feOffset
         result="offset"
         in="blur"
         dx="0.200000"
         dy="1.000000"
         id="feOffset13" />
      <feComposite
         result="comp1"
         operator="in"
         in="flood"
         in2="offset"
         id="feComposite13" />
      <feComposite
         result="fbSourceGraphic"
         operator="over"
         in="SourceGraphic"
         in2="comp1"
         id="feComposite14" />
      <feColorMatrix
         result="fbSourceGraphicAlpha"
         in="fbSourceGraphic"
         values="0 0 0 -1 0 0 0 0 -1 0 0 0 0 -1 0 0 0 0 1 0"
         id="feColorMatrix26" />
      <feFlood
         id="feFlood26"
         result="flood"
         in="fbSourceGraphic"
         flood-opacity="0.400000"
         flood-color="rgb(208,215,220)" />
      <feGaussianBlur
         id="feGaussianBlur26"
         result="blur"
         in="fbSourceGraphic"
         stdDeviation="1.000000" />
      <feOffset
         id="feOffset26"
         result="offset"
         in="blur"
         dx="-0.500000"
         dy="1.000000" />
      <feComposite
         id="feComposite26"
         result="comp1"
         operator="in"
         in="flood"
         in2="offset" />
      <feComposite
         id="feComposite27"
         result="fbSourceGraphic"
         operator="over"
         in="fbSourceGraphic"
         in2="comp1" />
      <feColorMatrix
         result="fbSourceGraphicAlpha"
         in="fbSourceGraphic"
         values="0 0 0 -1 0 0 0 0 -1 0 0 0 0 -1 0 0 0 0 1 0"
         id="feColorMatrix4" />
      <feGaussianBlur
         id="feGaussianBlur4"
         stdDeviation="1.23 1.34"
         result="blur"
         in="fbSourceGraphic" />
      <feColorMatrix
         id="feColorMatrix5"
         values="1 0 0 0 0 0 1 0 0 0 0 0 1 0 0 0 0 0 50 0 "
         result="colormatrix" />
      <feComposite
         id="feComposite5"
         in="colormatrix"
         in2="fbSourceGraphic"
         operator="in"
         result="fbSourceGraphic" />
      <feColorMatrix
         result="fbSourceGraphicAlpha"
         in="fbSourceGraphic"
         values="0 0 0 -1 0 0 0 0 -1 0 0 0 0 -1 0 0 0 0 1 0"
         id="feColorMatrix9" />
      <feGaussianBlur
         id="feGaussianBlur9"
         stdDeviation="0.4"
         result="blur"
         in="fbSourceGraphic" />
      <feComposite
         id="feComposite9"
         in="fbSourceGraphic"
         in2="blur"
         operator="in"
         result="composite1" />
      <feComposite
         id="feComposite10"
         in="composite1"
         in2="composite1"
         operator="in"
         result="composite2" />
    </filter>
  </defs>
  <g
     id="layer1"
     transform="translate(-22.847653,-35.517403)">
    <g
       id="g5">
      <path
         d="m 114.25969,119.17104 a 52.302872,52.002354 0 0 1 25.19949,44.46137 52.302872,52.002354 0 0 1 -43.059897,51.0837 49.014111,49.014111 0 0 0 3.30884,0.26045 49.014111,49.014111 0 0 0 49.014057,-49.01406 49.014111,49.014111 0 0 0 -34.46249,-46.79146 z"
         style="fill:#ffff00;fill-opacity:1;stroke-width:1.165;stroke-linecap:round;paint-order:stroke fill markers;filter:url(#filter284)"
         id="path4" />
      <path
         d="m 114.25969,119.17104 a 49.014111,49.014111 0 0 0 -14.551567,-2.22261 49.014111,49.014111 0 0 0 -49.01406,49.01407 49.014111,49.014111 0 0 0 45.70522,48.75361 52.302872,52.002354 0 0 0 43.059897,-51.0837 52.302872,52.002354 0 0 0 -25.19949,-44.46137 z"
         style="fill:#3d4a52;fill-opacity:1;stroke-width:1.165;stroke-linecap:round;paint-order:stroke fill markers;filter:url(#filter283)"
         id="path5" />
      <path
         style="fill:#ffff00;fill-opacity:1;stroke:none;stroke-width:1.165;stroke-linecap:round;paint-order:stroke fill markers;filter:url(#filter278)"
         id="path6"
         d="m 110.05398,55.75583 -2.92538,0.634172 -1.13603,2.769386 -1.50713,-2.586238 -2.9849,-0.224642 1.99393,-2.232555 -0.70873,-2.908222 2.73944,1.206443 2.54687,-1.572738 -0.30086,2.978178 z" />
      <path
         style="fill:#ffff00;fill-opacity:1;stroke:none;stroke-width:1.165;stroke-linecap:round;paint-order:stroke fill markers;filter:url(#filter276)"
         id="path7"
         d="m 110.05398,55.75583 -2.92538,0.634172 -1.13603,2.769386 -1.50713,-2.586238 -2.9849,-0.224642 1.99393,-2.232555 -0.70873,-2.908222 2.73944,1.206443 2.54687,-1.572738 -0.30086,2.978178 z"
         transform="translate(18.585276,13.847852)" />
      <path
         style="fill:#ffff00;fill-opacity:1;stroke:none;stroke-width:1.165;stroke-linecap:round;paint-order:stroke fill markers;filter:url(#filter280)"
         id="path8"
         d="m 110.05398,55.75583 -2.92538,0.634172 -1.13603,2.769386 -1.50713,-2.586238 -2.9849,-0.224642 1.99393,-2.232555 -0.70873,-2.908222 2.73944,1.206443 2.54687,-1.572738 -0.30086,2.978178 z"
         transform="translate(-32.433129,24.051533)" />
      <path
         style="fill:#ffff00;fill-opacity:1;stroke:none;stroke-width:1.165;stroke-linecap:round;paint-order:stroke fill markers;filter:url(#filter282)"
         id="path9"
         d="m 110.05398,55.75583 -2.92538,0.634172 -1.13603,2.769386 -1.50713,-2.586238 -2.9849,-0.224642 1.99393,-2.232555 -0.70873,-2.908222 2.73944,1.206443 2.54687,-1.572738 -0.30086,2.978178 z"
         transform="translate(-56.484663,1.8220851)" />
      <path
         style="fill:#ffff00;fill-opacity:1;stroke:none;stroke-width:1.165;stroke-linecap:round;paint-order:stroke fill markers;filter:url(#filter281)"
         id="path10"
         d="m 110.05398,55.75583 -2.92538,0.634172 -1.13603,2.769386 -1.50713,-2.586238 -2.9849,-0.224642 1.99393,-2.232555 -0.70873,-2.908222 2.73944,1.206443 2.54687,-1.572738 -0.30086,2.978178 z"
         transform="translate(-48.467485,44.823312)" />
      <path
         style="fill:#ffff00;fill-opacity:1;stroke:none;stroke-width:1.165;stroke-linecap:round;paint-order:stroke fill markers;filter:url(#filter275)"
         id="path11"
         d="m 110.05398,55.75583 -2.92538,0.634172 -1.13603,2.769386 -1.50713,-2.586238 -2.9849,-0.224642 1.99393,-2.232555 -0.70873,-2.908222 2.73944,1.206443 2.54687,-1.572738 -0.30086,2.978178 z"
         transform="translate(33.52638,38.263803)" />
      <path
         style="fill:#ffff00;fill-opacity:1;stroke:none;stroke-width:1.165;stroke-linecap:round;paint-order:stroke fill markers;filter:url(#filter274)"
         id="path12"
         d="m 156.27696,62.936689 -5.97356,-3.988742 -6.67234,2.659604 1.94759,-6.913788 -4.5913,-5.523906 7.17724,-0.284214 3.83476,-6.073565 2.48819,6.738134 6.96131,1.770236 -5.63945,4.44861 z" />
      <path
         style="fill:#ffff00;fill-opacity:1;stroke:none;stroke-width:1.165;stroke-linecap:round;paint-order:stroke fill markers;filter:url(#filter279)"
         id="path13"
         d="m 156.27696,62.936689 -5.97356,-3.988742 -6.67234,2.659604 1.94759,-6.913788 -4.5913,-5.523906 7.17724,-0.284214 3.83476,-6.073565 2.48819,6.738134 6.96131,1.770236 -5.63945,4.44861 z"
         transform="translate(-74.341104,-5.8306748)" />
      <path
         style="fill:#ffff00;fill-opacity:1;stroke:none;stroke-width:1.165;stroke-linecap:round;paint-order:stroke fill markers;filter:url(#filter277)"
         id="path14"
         d="m 156.27696,62.936689 -5.97356,-3.988742 -6.67234,2.659604 1.94759,-6.913788 -4.5913,-5.523906 7.17724,-0.284214 3.83476,-6.073565 2.48819,6.738134 6.96131,1.770236 -5.63945,4.44861 z"
         transform="translate(-49.925153,30.611043)" />
    </g>
  </g>
  <g
     id="layer1-4"
     style="fill:#a7a7a7;fill-opacity:1;filter:url(#filter14)"
     transform="matrix(1.4565941,0,0,1.4565941,-95.292755,-47.84947)">
    <path
       d="m 105.86418,136.91296 c -3.08514,0.009 -5.988723,1.45961 -7.849303,3.92059 -1.21352,-0.68851 -2.58455,-1.05127 -3.97978,-1.05301 -4.46548,-8e-5 -8.08548,3.61992 -8.0854,8.08539 l 6.4e-4,0.008 c -1.24423,-1.26473 -2.90123,-1.97175 -4.62546,-1.97363 -3.69548,0 -6.69126,3.1741 -6.69125,7.08955 0.025,3.68353 2.70826,6.73314 6.17458,7.01748 0.0218,0.0444 0.0588,0.0797 0.11183,0.0797 h 30.761053 11.81305 5.58923 c 0.0534,0 0.0906,-0.0357 0.11228,-0.0806 0.0297,0.004 0.0593,0.008 0.089,0.012 3.35887,-6e-5 6.08175,-2.7997 6.08172,-6.2532 -9e-5,-3.45341 -2.72293,-6.25293 -6.08172,-6.25298 -0.2278,0.0175 -0.45446,0.0482 -0.67889,0.092 -1.18025,-5.27945 -5.74936,-9.02195 -11.01806,-9.02477 -1.67007,0.0146 -3.31628,0.40921 -4.82042,1.15558 -1.844,-1.80653 -4.32194,-2.81937 -6.90338,-2.82172 z"
       style="fill:#a7a7a7;fill-opacity:1;stroke-width:0.45172;stroke-linecap:round;paint-order:stroke fill markers"
       id="path6-2" />
  </g>
</svg>
