<?xml version="1.0" encoding="UTF-8" standalone="no"?>
<!-- Created with Inkscape (http://www.inkscape.org/) -->

<svg
   width="119.36097mm"
   height="180.92316mm"
   viewBox="0 0 119.36097 180.92316"
   version="1.1"
   id="svg1"
   xmlns="http://www.w3.org/2000/svg"
   xmlns:svg="http://www.w3.org/2000/svg">
  <defs
     id="defs1">
    <filter
       style="color-interpolation-filters:sRGB"
       id="filter274"
       x="-0.071549008"
       y="-0.072746749"
       width="1.143098"
       height="1.1454935">
      <feGaussianBlur
         stdDeviation="0.61 0.61"
         result="blur"
         id="feGaussianBlur274" />
    </filter>
    <filter
       style="color-interpolation-filters:sRGB"
       id="filter275"
       x="-0.17115921"
       y="-0.17600487"
       width="1.3423184"
       height="1.3520097">
      <feGaussianBlur
         stdDeviation="0.61 0.61"
         result="blur"
         id="feGaussianBlur275" />
    </filter>
    <filter
       style="color-interpolation-filters:sRGB"
       id="filter276"
       x="-0.17115921"
       y="-0.17600487"
       width="1.3423184"
       height="1.3520097">
      <feGaussianBlur
         stdDeviation="0.61 0.61"
         result="blur"
         id="feGaussianBlur276" />
    </filter>
    <filter
       style="color-interpolation-filters:sRGB"
       id="filter277"
       x="-0.071549008"
       y="-0.072746749"
       width="1.143098"
       height="1.1454935">
      <feGaussianBlur
         stdDeviation="0.61 0.61"
         result="blur"
         id="feGaussianBlur277" />
    </filter>
    <filter
       style="color-interpolation-filters:sRGB"
       id="filter278"
       x="-0.17115921"
       y="-0.17600487"
       width="1.3423184"
       height="1.3520097">
      <feGaussianBlur
         stdDeviation="0.61 0.61"
         result="blur"
         id="feGaussianBlur278" />
    </filter>
    <filter
       style="color-interpolation-filters:sRGB"
       id="filter279"
       x="-0.071549008"
       y="-0.072746749"
       width="1.143098"
       height="1.1454935">
      <feGaussianBlur
         stdDeviation="0.61 0.61"
         result="blur"
         id="feGaussianBlur279" />
    </filter>
    <filter
       style="color-interpolation-filters:sRGB"
       id="filter280"
       x="-0.17115921"
       y="-0.17600487"
       width="1.3423184"
       height="1.3520097">
      <feGaussianBlur
         stdDeviation="0.61 0.61"
         result="blur"
         id="feGaussianBlur280" />
    </filter>
    <filter
       style="color-interpolation-filters:sRGB"
       id="filter281"
       x="-0.17115921"
       y="-0.17600487"
       width="1.3423184"
       height="1.3520097">
      <feGaussianBlur
         stdDeviation="0.61 0.61"
         result="blur"
         id="feGaussianBlur281" />
    </filter>
    <filter
       style="color-interpolation-filters:sRGB"
       id="filter282"
       x="-0.17115921"
       y="-0.17600487"
       width="1.3423184"
       height="1.3520097">
      <feGaussianBlur
         stdDeviation="0.61 0.61"
         result="blur"
         id="feGaussianBlur282" />
    </filter>
    <filter
       style="color-interpolation-filters:sRGB"
       id="filter283"
       x="-0.016492966"
       y="-0.014974274"
       width="1.0329859"
       height="1.0299485">
      <feGaussianBlur
         stdDeviation="0.61 0.61"
         result="blur"
         id="feGaussianBlur283" />
    </filter>
    <filter
       style="color-interpolation-filters:sRGB"
       id="filter284"
       x="-0.027980103"
       y="-0.015280957"
       width="1.0559602"
       height="1.0305619">
      <feGaussianBlur
         stdDeviation="0.61 0.61"
         result="blur"
         id="feGaussianBlur284" />
    </filter>
  </defs>
  <g
     id="layer1"
     transform="translate(-43.551876,-35.517408)">
    <g
       id="g5">
      <path
         d="m 114.25969,119.17104 a 52.302872,52.002354 0 0 1 25.19949,44.46137 52.302872,52.002354 0 0 1 -43.059897,51.0837 49.014111,49.014111 0 0 0 3.30884,0.26045 49.014111,49.014111 0 0 0 49.014057,-49.01406 49.014111,49.014111 0 0 0 -34.46249,-46.79146 z"
         style="fill:#ffff00;fill-opacity:1;stroke-width:1.165;stroke-linecap:round;paint-order:stroke fill markers;filter:url(#filter284)"
         id="path4" />
      <path
         d="m 114.25969,119.17104 a 49.014111,49.014111 0 0 0 -14.551567,-2.22261 49.014111,49.014111 0 0 0 -49.01406,49.01407 49.014111,49.014111 0 0 0 45.70522,48.75361 52.302872,52.002354 0 0 0 43.059897,-51.0837 52.302872,52.002354 0 0 0 -25.19949,-44.46137 z"
         style="fill:#3d4a52;fill-opacity:1;stroke-width:1.165;stroke-linecap:round;paint-order:stroke fill markers;filter:url(#filter283)"
         id="path5" />
      <path
         style="fill:#ffff00;fill-opacity:1;stroke:none;stroke-width:1.165;stroke-linecap:round;paint-order:stroke fill markers;filter:url(#filter278)"
         id="path6"
         d="m 110.05398,55.75583 -2.92538,0.634172 -1.13603,2.769386 -1.50713,-2.586238 -2.9849,-0.224642 1.99393,-2.232555 -0.70873,-2.908222 2.73944,1.206443 2.54687,-1.572738 -0.30086,2.978178 z" />
      <path
         style="fill:#ffff00;fill-opacity:1;stroke:none;stroke-width:1.165;stroke-linecap:round;paint-order:stroke fill markers;filter:url(#filter276)"
         id="path7"
         d="m 110.05398,55.75583 -2.92538,0.634172 -1.13603,2.769386 -1.50713,-2.586238 -2.9849,-0.224642 1.99393,-2.232555 -0.70873,-2.908222 2.73944,1.206443 2.54687,-1.572738 -0.30086,2.978178 z"
         transform="translate(18.585276,13.847852)" />
      <path
         style="fill:#ffff00;fill-opacity:1;stroke:none;stroke-width:1.165;stroke-linecap:round;paint-order:stroke fill markers;filter:url(#filter280)"
         id="path8"
         d="m 110.05398,55.75583 -2.92538,0.634172 -1.13603,2.769386 -1.50713,-2.586238 -2.9849,-0.224642 1.99393,-2.232555 -0.70873,-2.908222 2.73944,1.206443 2.54687,-1.572738 -0.30086,2.978178 z"
         transform="translate(-32.433129,24.051533)" />
      <path
         style="fill:#ffff00;fill-opacity:1;stroke:none;stroke-width:1.165;stroke-linecap:round;paint-order:stroke fill markers;filter:url(#filter282)"
         id="path9"
         d="m 110.05398,55.75583 -2.92538,0.634172 -1.13603,2.769386 -1.50713,-2.586238 -2.9849,-0.224642 1.99393,-2.232555 -0.70873,-2.908222 2.73944,1.206443 2.54687,-1.572738 -0.30086,2.978178 z"
         transform="translate(-56.484663,1.8220851)" />
      <path
         style="fill:#ffff00;fill-opacity:1;stroke:none;stroke-width:1.165;stroke-linecap:round;paint-order:stroke fill markers;filter:url(#filter281)"
         id="path10"
         d="m 110.05398,55.75583 -2.92538,0.634172 -1.13603,2.769386 -1.50713,-2.586238 -2.9849,-0.224642 1.99393,-2.232555 -0.70873,-2.908222 2.73944,1.206443 2.54687,-1.572738 -0.30086,2.978178 z"
         transform="translate(-48.467485,44.823312)" />
      <path
         style="fill:#ffff00;fill-opacity:1;stroke:none;stroke-width:1.165;stroke-linecap:round;paint-order:stroke fill markers;filter:url(#filter275)"
         id="path11"
         d="m 110.05398,55.75583 -2.92538,0.634172 -1.13603,2.769386 -1.50713,-2.586238 -2.9849,-0.224642 1.99393,-2.232555 -0.70873,-2.908222 2.73944,1.206443 2.54687,-1.572738 -0.30086,2.978178 z"
         transform="translate(33.52638,38.263803)" />
      <path
         style="fill:#ffff00;fill-opacity:1;stroke:none;stroke-width:1.165;stroke-linecap:round;paint-order:stroke fill markers;filter:url(#filter274)"
         id="path12"
         d="m 156.27696,62.936689 -5.97356,-3.988742 -6.67234,2.659604 1.94759,-6.913788 -4.5913,-5.523906 7.17724,-0.284214 3.83476,-6.073565 2.48819,6.738134 6.96131,1.770236 -5.63945,4.44861 z" />
      <path
         style="fill:#ffff00;fill-opacity:1;stroke:none;stroke-width:1.165;stroke-linecap:round;paint-order:stroke fill markers;filter:url(#filter279)"
         id="path13"
         d="m 156.27696,62.936689 -5.97356,-3.988742 -6.67234,2.659604 1.94759,-6.913788 -4.5913,-5.523906 7.17724,-0.284214 3.83476,-6.073565 2.48819,6.738134 6.96131,1.770236 -5.63945,4.44861 z"
         transform="translate(-74.341104,-5.8306748)" />
      <path
         style="fill:#ffff00;fill-opacity:1;stroke:none;stroke-width:1.165;stroke-linecap:round;paint-order:stroke fill markers;filter:url(#filter277)"
         id="path14"
         d="m 156.27696,62.936689 -5.97356,-3.988742 -6.67234,2.659604 1.94759,-6.913788 -4.5913,-5.523906 7.17724,-0.284214 3.83476,-6.073565 2.48819,6.738134 6.96131,1.770236 -5.63945,4.44861 z"
         transform="translate(-49.925153,30.611043)" />
    </g>
  </g>
</svg>
