<?xml version="1.0" encoding="UTF-8" standalone="no"?>
<!-- Created with Inkscape (http://www.inkscape.org/) -->

<svg
   width="210mm"
   height="296.99997mm"
   viewBox="0 0 210 296.99997"
   version="1.1"
   id="svg1"
   xmlns="http://www.w3.org/2000/svg"
   xmlns:svg="http://www.w3.org/2000/svg">
  <defs
     id="defs1" />
  <g
     id="layer1"
     transform="translate(-52.821481,-102.80795)">
    <g
       id="g155">
      <path
         style="fill:#ffcc00;stroke:#ffd42a;stroke-width:1.165;stroke-linecap:round;stroke-opacity:1;paint-order:stroke fill markers"
         transform="rotate(57.201253,105.47721,149.43521)"
         d="m 78.777746,105.86459 53.191394,89.20309"
         id="path149" />
      <path
         style="fill:#ffcc00;stroke:#ffd42a;stroke-width:1.165;stroke-linecap:round;stroke-opacity:1;paint-order:stroke fill markers"
         transform="rotate(57.201253,105.47721,149.43521)"
         d="M 69.489908,126.96508 Z"
         id="path147" />
      <path
         style="fill:#ffcc00;stroke:#ffd42a;stroke-width:1.165;stroke-linecap:round;stroke-opacity:1;paint-order:stroke fill markers"
         transform="rotate(57.201253,105.47721,149.43521)"
         d="m 66.435647,125.14374 76.893633,49.55219"
         id="path145" />
      <path
         style="fill:#ffcc00;stroke:#ffd42a;stroke-width:1.165;stroke-linecap:round;stroke-opacity:1;paint-order:stroke fill markers"
         transform="rotate(57.201253,105.47721,149.43521)"
         d="M 129.53803,111.3956 80.226915,188.44406"
         id="path143" />
      <path
         style="fill:#ffcc00;stroke:#ffd42a;stroke-width:1.165;stroke-linecap:round;stroke-opacity:1;paint-order:stroke fill markers"
         transform="rotate(57.201253,105.47721,149.43521)"
         d="m 96.673505,104.92399 16.417925,89.99168"
         id="path141" />
      <path
         style="fill:#ffcc00;stroke:#ffd42a;stroke-width:1.165;stroke-linecap:round;stroke-opacity:1;paint-order:stroke fill markers"
         transform="rotate(57.201253,105.47721,149.43521)"
         d="M 60.785867,162.06491 148.97906,137.77477"
         id="path139" />
      <path
         style="fill:#ffcc00;stroke:#ffd42a;stroke-width:1.165;stroke-linecap:round;stroke-opacity:1;paint-order:stroke fill markers"
         transform="rotate(57.201253,105.47721,149.43521)"
         d="M 53.106017,145.94146 156.65892,153.8982"
         id="path137" />
      <path
         style="fill:#ffcc00;stroke:#ffd42a;stroke-width:1.165;stroke-linecap:round;stroke-opacity:1;paint-order:stroke fill markers"
         transform="rotate(57.201253,105.47721,149.43521)"
         d="M 114.63687,105.8882 95.148508,195.26524"
         id="path135" />
      <path
         style="fill:#ffcc00;stroke:#ffd42a;stroke-width:1.165;stroke-linecap:round;stroke-opacity:1;paint-order:stroke fill markers"
         transform="rotate(57.201253,105.47721,149.43521)"
         d="m 139.32715,119.82703 -68.889357,60.1856"
         id="path133" />
      <path
         style="fill:#ffcc00;stroke:#ffd42a;stroke-width:1.165;stroke-linecap:round;stroke-opacity:1;paint-order:stroke fill markers"
         transform="rotate(57.201253,105.47721,149.43521)"
         d="m 72.124851,116.95348 64.615479,64.75253"
         id="path131" />
      <path
         style="fill:#ffcc00;stroke:#ffd42a;stroke-width:1.165;stroke-linecap:round;stroke-opacity:1;paint-order:stroke fill markers"
         transform="rotate(57.201253,105.47721,149.43521)"
         d="M 147.47467,164.80204 61.390501,133.85747"
         id="path129" />
      <path
         style="fill:#ffcc00;stroke:#ffd42a;stroke-width:1.165;stroke-linecap:round;stroke-opacity:1;paint-order:stroke fill markers"
         transform="rotate(57.201253,105.47721,149.43521)"
         d="M 144.55331,127.36752 64.311848,171.29198"
         id="path127" />
      <path
         style="fill:#ffcc00;stroke:#ffd42a;stroke-width:1.165;stroke-linecap:round;stroke-opacity:1;paint-order:stroke fill markers"
         transform="rotate(57.201253,105.47721,149.43521)"
         d="m 87.541104,106.82456 33.782946,85.01038"
         id="path125" />
      <path
         style="fill:#ffcc00;stroke:#ffd42a;stroke-width:1.165;stroke-linecap:round;stroke-opacity:1;paint-order:stroke fill markers"
         transform="rotate(57.201253,105.47721,149.43521)"
         d="m 149.45101,145.34188 -91.153262,7.68988"
         id="path123" />
      <path
         style="fill:#ffcc00;stroke:#ffd42a;stroke-width:1.165;stroke-linecap:round;stroke-opacity:1;paint-order:stroke fill markers"
         transform="rotate(57.201253,105.47721,149.43521)"
         d="m 105.39412,97.993276 -1.0233,103.853104"
         id="path29" />
      <path
         style="fill:#ffcc00;stroke:#ffd42a;stroke-width:1.165;stroke-linecap:round;stroke-opacity:1;paint-order:stroke fill markers"
         transform="rotate(79.50107,104.7265,149.71592)"
         d="m 105.39412,97.993276 -1.0233,103.853104"
         id="path153" />
    </g>
    <path
       style="fill:#ffcc00;stroke:#ffd42a;stroke-width:1.165;stroke-linecap:round;stroke-opacity:1;paint-order:stroke fill markers"
       transform="rotate(57.201253,105.47721,149.43521)"
       d="m 126.90556,114.45686 c -9.1297,-5.88341 -20.62517,-7.97223 -31.241039,-5.67676 -10.615873,2.29548 -20.221414,8.94698 -26.104823,18.07668 -5.883409,9.1297 -7.972229,20.62517 -5.676752,31.24104 2.295477,10.61587 8.946979,20.22141 18.076681,26.10482 9.129702,5.88341 20.625163,7.97223 31.241043,5.67676 10.61587,-2.29548 20.22141,-8.94698 26.10482,-18.07668 5.88341,-9.1297 7.97223,-20.62517 5.67675,-31.24104 -2.29548,-10.61587 -8.94698,-20.22141 -18.07668,-26.10482 z"
       id="path151" />
  </g>
</svg>
